<svg width="512" height="512" viewBox="0 0 100 100" fill="none" xmlns="http://www.w3.org/2000/svg">
  <rect width="100" height="100" rx="20" fill="#0A0908"/>
  <g stroke="#B8945F" stroke-linecap="round">
    <circle cx="50" cy="50" r="46" stroke-width="1.5"/>
    <line x1="50" y1="2" x2="50" y2="6" stroke-width="1"/>
    <line x1="50" y1="94" x2="50" y2="98" stroke-width="1"/>
    <line x1="2" y1="50" x2="6" y2="50" stroke-width="1"/>
    <line x1="94" y1="50" x2="98" y2="50" stroke-width="1"/>
    <polygon points="50,2 48.5,5 50,4 51.5,5" fill="#B8945F" stroke="none"/>
    <polygon points="50,98 48.5,95 50,96 51.5,95" fill="#B8945F" stroke="none"/>
    <polygon points="2,50 5,48.5 4,50 5,51.5" fill="#B8945F" stroke="none"/>
    <polygon points="98,50 95,48.5 96,50 95,51.5" fill="#B8945F" stroke="none"/>
  </g>
  <circle cx="50" cy="50" r="38" stroke="#B8945F" stroke-width="0.5"/>
  <g stroke="#B8945F" stroke-width="0.5" stroke-linecap="round">
    <line x1="78" y1="50" x2="88" y2="50"/>
    <line x1="74.2" y1="36" x2="82.9" y2="31"/>
    <line x1="64" y1="25.8" x2="69" y2="17.1"/>
    <line x1="50" y1="22" x2="50" y2="12"/>
    <line x1="36" y1="25.8" x2="31" y2="17.1"/>
    <line x1="25.8" y1="36" x2="17.1" y2="31"/>
    <line x1="22" y1="50" x2="12" y2="50"/>
    <line x1="25.8" y1="64" x2="17.1" y2="69"/>
    <line x1="36" y1="74.2" x2="31" y2="82.9"/>
    <line x1="50" y1="78" x2="50" y2="88"/>
    <line x1="64" y1="74.2" x2="69" y2="82.9"/>
    <line x1="74.2" y1="64" x2="82.9" y2="69"/>
  </g>
  <rect x="50" y="50" width="24" height="24" transform="rotate(45 50 50) translate(-12 -12)" stroke="#B8945F" stroke-width="1" fill="none" rx="1"/>
  <rect x="50" y="50" width="16" height="16" transform="rotate(45 50 50) translate(-8 -8)" stroke="#B8945F" stroke-width="0.5" fill="none"/>
  <g stroke="#B8945F" stroke-width="1.2" stroke-linecap="round" stroke-linejoin="round">
    <polyline points="42,39 42,53 48,53" fill="none"/>
    <path d="M58,41 C54,38 51,40 51,47 C51,54 54,56 58,53" fill="none"/>
  </g>
  <g fill="#B8945F">
    <circle cx="83" cy="50" r="1"/>
    <circle cx="78.6" cy="33.5" r="1"/>
    <circle cx="66.5" cy="21.4" r="1"/>
    <circle cx="50" cy="17" r="1"/>
    <circle cx="33.5" cy="21.4" r="1"/>
    <circle cx="21.4" cy="33.5" r="1"/>
    <circle cx="17" cy="50" r="1"/>
    <circle cx="21.4" cy="66.5" r="1"/>
    <circle cx="33.5" cy="78.6" r="1"/>
    <circle cx="50" cy="83" r="1"/>
    <circle cx="66.5" cy="78.6" r="1"/>
    <circle cx="78.6" cy="66.5" r="1"/>
  </g>
  <g fill="#B8945F">
    <circle cx="79.7" cy="79.7" r="1.2"/>
    <circle cx="20.3" cy="79.7" r="1.2"/>
    <circle cx="20.3" cy="20.3" r="1.2"/>
    <circle cx="79.7" cy="20.3" r="1.2"/>
  </g>
</svg>
